<?xml version="1.0" encoding="UTF-8" standalone="no"?>
<!DOCTYPE svg PUBLIC "-//W3C//DTD SVG 1.1//EN" "http://www.w3.org/Graphics/SVG/1.1/DTD/svg11.dtd">
<svg width="100%" height="100%" viewBox="0 0 1123 566" version="1.1" xmlns="http://www.w3.org/2000/svg" xmlns:xlink="http://www.w3.org/1999/xlink" xml:space="preserve" xmlns:serif="http://www.serif.com/" style="fill-rule:evenodd;clip-rule:evenodd;stroke-linejoin:round;stroke-miterlimit:2;">
    <g id="Mesa-de-trabajo1" serif:id="Mesa de trabajo1" transform="matrix(0.803479,0,0,0.699686,-712.07641,-661.540425)">
        <rect x="886.242" y="945.482" width="1397.669" height="808.455" style="fill:none;"/>
        <g transform="matrix(1.381611,0,0,1.586561,-549.205548,-780.261032)">
            <g transform="matrix(1,0,0,1,23.911171,0)">
                <path d="M1428.699,1489.019L1368.113,1489.019L1368.113,1326.064C1368.113,1308.464 1368.873,1289.028 1370.392,1267.757L1368.873,1267.757C1365.708,1284.47 1362.859,1296.499 1360.326,1303.842L1296.511,1489.019L1246.371,1489.019L1181.417,1305.742C1179.644,1300.804 1176.795,1288.142 1172.87,1267.757L1171.161,1267.757C1172.807,1294.599 1173.63,1318.15 1173.63,1338.409L1173.63,1489.019L1118.362,1489.019L1118.362,1216.667L1208.196,1216.667L1263.844,1378.103C1268.276,1391.018 1271.505,1403.996 1273.531,1417.038L1274.67,1417.038C1278.089,1401.97 1281.697,1388.866 1285.496,1377.723L1341.144,1216.667L1428.699,1216.667L1428.699,1489.019Z" style="fill:rgb(175,10,204);fill-rule:nonzero;"/>
            </g>
            <path d="M1515.115,1263.768C1504.986,1263.768 1496.693,1260.761 1490.235,1254.747C1483.778,1248.732 1480.549,1241.357 1480.549,1232.62C1480.549,1223.631 1483.778,1216.287 1490.235,1210.589C1496.693,1204.891 1504.986,1202.043 1515.115,1202.043C1525.371,1202.043 1533.696,1204.891 1540.09,1210.589C1546.485,1216.287 1549.682,1223.631 1549.682,1232.62C1549.682,1241.737 1546.485,1249.207 1540.09,1255.032C1533.696,1260.856 1525.371,1263.768 1515.115,1263.768ZM1544.744,1489.019L1484.727,1489.019L1484.727,1294.536L1544.744,1294.536L1544.744,1489.019Z" style="fill:rgb(175,10,204);fill-rule:nonzero;"/>
            <g transform="matrix(1,0,0,1,-23.911171,0)">
                <path d="M1758.599,1266.617L1662.497,1266.617L1662.497,1333.471L1750.812,1333.471L1750.812,1383.231L1662.497,1383.231L1662.497,1489.019L1601.151,1489.019L1601.151,1216.667L1758.599,1216.667L1758.599,1266.617Z" style="fill:rgb(175,10,204);fill-rule:nonzero;"/>
            </g>
            <g transform="matrix(1,0,0,1,-40.465059,0)">
                <path d="M1827.922,1263.768C1817.793,1263.768 1809.499,1260.761 1803.042,1254.747C1796.584,1248.732 1793.356,1241.357 1793.356,1232.62C1793.356,1223.631 1796.584,1216.287 1803.042,1210.589C1809.499,1204.891 1817.793,1202.043 1827.922,1202.043C1838.178,1202.043 1846.503,1204.891 1852.897,1210.589C1859.291,1216.287 1862.488,1223.631 1862.488,1232.62C1862.488,1241.737 1859.291,1249.207 1852.897,1255.032C1846.503,1260.856 1838.178,1263.768 1827.922,1263.768ZM1857.55,1489.019L1797.534,1489.019L1797.534,1294.536L1857.55,1294.536L1857.55,1489.019Z" style="fill:rgb(175,10,204);fill-rule:nonzero;"/>
            </g>
            <g transform="matrix(1,0,0,1,-82.769438,0.251871)">
                <path d="M2025.634,1486.74C2016.771,1491.425 2003.413,1493.768 1985.56,1493.768C1943.27,1493.768 1922.125,1471.8 1922.125,1427.864L1922.125,1338.789L1890.597,1338.789L1890.597,1294.536L1922.125,1294.536L1922.125,1252.563L1981.951,1235.469L1981.951,1294.536L2025.634,1294.536L2025.634,1338.789L1981.951,1338.789L1981.951,1417.418C1981.951,1437.676 1989.992,1447.806 2006.072,1447.806C2012.403,1447.806 2018.923,1445.97 2025.634,1442.298L2025.634,1486.74Z" style="fill:rgb(175,10,204);fill-rule:nonzero;"/>
            </g>
        </g>
    </g>
</svg>
